REM DIRINDEX 1\2,1\3,1\4,1\5
REM DIRNAME cjc087,folder01,folder02,folder03,folder04
TITLE ""
FILE "Chapter_13.mp3" MP3
  TRACK 01 AUDIO
    TITLE "0:"
    INDEX 01 00:00:00
  TRACK 02 AUDIO
    TITLE "5:cjc087_3905"
    INDEX 01 00:00:07
  TRACK 03 AUDIO
    TITLE "0:"
    INDEX 01 00:01:69
  TRACK 04 AUDIO
    TITLE "5:cjc087_3906"
    INDEX 01 00:03:29
  TRACK 05 AUDIO
    TITLE "0:"
    INDEX 01 00:05:67
  TRACK 06 AUDIO
    TITLE "4:cjc087_3907"
    INDEX 01 00:06:67
  TRACK 07 AUDIO
    TITLE "3:cjc087_3908"
    INDEX 01 00:09:10
  TRACK 08 AUDIO
    TITLE "0:"
    INDEX 01 00:11:62
  TRACK 09 AUDIO
    TITLE "4:cjc087_3909"
    INDEX 01 00:12:58
  TRACK 10 AUDIO
    TITLE "3:cjc087_3910"
    INDEX 01 00:15:09
  TRACK 11 AUDIO
    TITLE "0:"
    INDEX 01 00:20:04
  TRACK 12 AUDIO
    TITLE "4:cjc087_3911"
    INDEX 01 00:21:02
  TRACK 13 AUDIO
    TITLE "3:cjc087_3912"
    INDEX 01 00:24:02
  TRACK 14 AUDIO
    TITLE "0:"
    INDEX 01 00:27:02
  TRACK 15 AUDIO
    TITLE "4:cjc087_3913"
    INDEX 01 00:28:00
  TRACK 16 AUDIO
    TITLE "3:cjc087_3914"
    INDEX 01 00:30:20
  TRACK 17 AUDIO
    TITLE "0:"
    INDEX 01 00:32:52
  TRACK 18 AUDIO
    TITLE "4:cjc087_3915"
    INDEX 01 00:33:52
  TRACK 19 AUDIO
    TITLE "3:cjc087_3916"
    INDEX 01 00:35:25
  TRACK 20 AUDIO
    TITLE "0:"
    INDEX 01 00:37:12
  TRACK 21 AUDIO
    TITLE "4:cjc087_3917"
    INDEX 01 00:38:12
  TRACK 22 AUDIO
    TITLE "3:cjc087_3918"
    INDEX 01 00:40:05
  TRACK 23 AUDIO
    TITLE "0:"
    INDEX 01 00:42:19
  TRACK 24 AUDIO
    TITLE "2:cjc087_3919"
    INDEX 01 00:43:48
  TRACK 25 AUDIO
    TITLE "0:"
    INDEX 01 00:56:04
  TRACK 26 AUDIO
    TITLE "5:cjc087_3920"
    INDEX 01 00:57:43
  TRACK 27 AUDIO
    TITLE "0:"
    INDEX 01 01:00:04
  TRACK 28 AUDIO
    TITLE "4:cjc087_3921"
    INDEX 01 01:01:03
  TRACK 29 AUDIO
    TITLE "3:cjc087_3922"
    INDEX 01 01:03:22
  TRACK 30 AUDIO
    TITLE "0:"
    INDEX 01 01:06:43
  TRACK 31 AUDIO
    TITLE "4:cjc087_3923"
    INDEX 01 01:07:41
  TRACK 32 AUDIO
    TITLE "3:cjc087_3924"
    INDEX 01 01:09:63
  TRACK 33 AUDIO
    TITLE "0:"
    INDEX 01 01:12:07
  TRACK 34 AUDIO
    TITLE "4:cjc087_3925"
    INDEX 01 01:13:06
  TRACK 35 AUDIO
    TITLE "3:cjc087_3926"
    INDEX 01 01:15:33
  TRACK 36 AUDIO
    TITLE "0:"
    INDEX 01 01:18:51
  TRACK 37 AUDIO
    TITLE "4:cjc087_3927"
    INDEX 01 01:19:50
  TRACK 38 AUDIO
    TITLE "3:cjc087_3928"
    INDEX 01 01:22:31
  TRACK 39 AUDIO
    TITLE "0:"
    INDEX 01 01:24:34
  TRACK 40 AUDIO
    TITLE "4:cjc087_3929"
    INDEX 01 01:25:31
  TRACK 41 AUDIO
    TITLE "3:cjc087_3930"
    INDEX 01 01:27:06
  TRACK 42 AUDIO
    TITLE "0:"
    INDEX 01 01:29:11
  TRACK 43 AUDIO
    TITLE "4:cjc087_3931"
    INDEX 01 01:30:11
  TRACK 44 AUDIO
    TITLE "3:cjc087_3932"
    INDEX 01 01:32:55
  TRACK 45 AUDIO
    TITLE "0:"
    INDEX 01 01:35:04
  TRACK 46 AUDIO
    TITLE "5:cjc087_3933"
    INDEX 01 01:36:43
  TRACK 47 AUDIO
    TITLE "0:"
    INDEX 01 01:39:08
  TRACK 48 AUDIO
    TITLE "4:cjc087_3934"
    INDEX 01 01:40:05
  TRACK 49 AUDIO
    TITLE "3:cjc087_3935"
    INDEX 01 01:42:45
  TRACK 50 AUDIO
    TITLE "0:"
    INDEX 01 01:44:07
  TRACK 51 AUDIO
    TITLE "4:cjc087_3936"
    INDEX 01 01:45:06
  TRACK 52 AUDIO
    TITLE "3:cjc087_3937"
    INDEX 01 01:47:37
  TRACK 53 AUDIO
    TITLE "0:"
    INDEX 01 01:50:04
  TRACK 54 AUDIO
    TITLE "4:cjc087_3938"
    INDEX 01 01:51:03
  TRACK 55 AUDIO
    TITLE "3:cjc087_3939"
    INDEX 01 01:52:53
  TRACK 56 AUDIO
    TITLE "0:"
    INDEX 01 01:54:44
  TRACK 57 AUDIO
    TITLE "4:cjc087_3940"
    INDEX 01 01:55:42
  TRACK 58 AUDIO
    TITLE "3:cjc087_3941"
    INDEX 01 01:58:01
  TRACK 59 AUDIO
    TITLE "0:"
    INDEX 01 02:00:24
  TRACK 60 AUDIO
    TITLE "4:cjc087_3942"
    INDEX 01 02:01:21
  TRACK 61 AUDIO
    TITLE "3:cjc087_3943"
    INDEX 01 02:03:14
  TRACK 62 AUDIO
    TITLE "0:"
    INDEX 01 02:05:07
  TRACK 63 AUDIO
    TITLE "4:cjc087_3944"
    INDEX 01 02:06:01
  TRACK 64 AUDIO
    TITLE "3:cjc087_3945"
    INDEX 01 02:07:63
  TRACK 65 AUDIO
    TITLE "0:"
    INDEX 01 02:10:14
  TRACK 66 AUDIO
    TITLE "4:cjc087_3946"
    INDEX 01 02:11:12
  TRACK 67 AUDIO
    TITLE "3:cjc087_3947"
    INDEX 01 02:14:18
  TRACK 68 AUDIO
    TITLE "0:"
    INDEX 01 02:16:64
  TRACK 69 AUDIO
    TITLE "5:cjc087_3948"
    INDEX 01 02:18:25
  TRACK 70 AUDIO
    TITLE "0:"
    INDEX 01 02:20:61
  TRACK 71 AUDIO
    TITLE "4:cjc087_3949"
    INDEX 01 02:21:61
  TRACK 72 AUDIO
    TITLE "3:cjc087_3950"
    INDEX 01 02:23:70
  TRACK 73 AUDIO
    TITLE "0:"
    INDEX 01 02:26:17
  TRACK 74 AUDIO
    TITLE "4:cjc087_3951"
    INDEX 01 02:27:13
  TRACK 75 AUDIO
    TITLE "3:cjc087_3952"
    INDEX 01 02:29:29
  TRACK 76 AUDIO
    TITLE "0:"
    INDEX 01 02:32:02
  TRACK 77 AUDIO
    TITLE "4:cjc087_3953"
    INDEX 01 02:32:74
  TRACK 78 AUDIO
    TITLE "3:cjc087_3954"
    INDEX 01 02:34:52
  TRACK 79 AUDIO
    TITLE "0:"
    INDEX 01 02:36:60
  TRACK 80 AUDIO
    TITLE "4:cjc087_3955"
    INDEX 01 02:37:60
  TRACK 81 AUDIO
    TITLE "3:cjc087_3956"
    INDEX 01 02:39:24
  TRACK 82 AUDIO
    TITLE "0:"
    INDEX 01 02:41:54
  TRACK 83 AUDIO
    TITLE "4:cjc087_3957"
    INDEX 01 02:42:49
  TRACK 84 AUDIO
    TITLE "3:cjc087_3958"
    INDEX 01 02:44:62
  TRACK 85 AUDIO
    TITLE "0:"
    INDEX 01 02:47:19
  TRACK 86 AUDIO
    TITLE "4:cjc087_3959"
    INDEX 01 02:48:17
  TRACK 87 AUDIO
    TITLE "3:cjc087_3960"
    INDEX 01 02:50:00
  TRACK 88 AUDIO
    TITLE "0:"
    INDEX 01 02:52:20
  TRACK 89 AUDIO
    TITLE "4:cjc087_3961"
    INDEX 01 02:53:18
  TRACK 90 AUDIO
    TITLE "3:cjc087_3962"
    INDEX 01 02:55:09
  TRACK 91 AUDIO
    TITLE "0:"
    INDEX 01 02:57:00
  TRACK 92 AUDIO
    TITLE "5:cjc087_3963"
    INDEX 01 02:58:37
  TRACK 93 AUDIO
    TITLE "0:"
    INDEX 01 03:01:00
  TRACK 94 AUDIO
    TITLE "4:cjc087_3964"
    INDEX 01 03:01:72
  TRACK 95 AUDIO
    TITLE "3:cjc087_3965"
    INDEX 01 03:04:29
  TRACK 96 AUDIO
    TITLE "0:"
    INDEX 01 03:07:08
  TRACK 97 AUDIO
    TITLE "4:cjc087_3966"
    INDEX 01 03:08:04
  TRACK 98 AUDIO
    TITLE "3:cjc087_3967"
    INDEX 01 03:09:52
  TRACK 99 AUDIO
    TITLE "0:"
    INDEX 01 03:11:27
  TRACK 100 AUDIO
    TITLE "4:cjc087_3968"
    INDEX 01 03:12:27
  TRACK 101 AUDIO
    TITLE "3:cjc087_3969"
    INDEX 01 03:14:04
  TRACK 102 AUDIO
    TITLE "0:"
    INDEX 01 03:15:66
  TRACK 103 AUDIO
    TITLE "4:cjc087_3970"
    INDEX 01 03:16:64
  TRACK 104 AUDIO
    TITLE "3:cjc087_3971"
    INDEX 01 03:19:09
  TRACK 105 AUDIO
    TITLE "0:"
    INDEX 01 03:21:73
  TRACK 106 AUDIO
    TITLE "4:cjc087_3972"
    INDEX 01 03:22:74
  TRACK 107 AUDIO
    TITLE "3:cjc087_3973"
    INDEX 01 03:25:28
  TRACK 108 AUDIO
    TITLE "0:"
    INDEX 01 03:28:00
  TRACK 109 AUDIO
    TITLE "4:cjc087_3974"
    INDEX 01 03:29:04
  TRACK 110 AUDIO
    TITLE "3:cjc087_3975"
    INDEX 01 03:31:40
  TRACK 111 AUDIO
    TITLE "0:"
    INDEX 01 03:34:03
  TRACK 112 AUDIO
    TITLE "4:cjc087_3976"
    INDEX 01 03:35:03
  TRACK 113 AUDIO
    TITLE "3:cjc087_3977"
    INDEX 01 03:37:17
  TRACK 114 AUDIO
    TITLE "0:"
    INDEX 01 03:40:23
  TRACK 115 AUDIO
    TITLE "5:cjc087_3978"
    INDEX 01 03:41:62
  TRACK 116 AUDIO
    TITLE "0:"
    INDEX 01 03:44:05
  TRACK 117 AUDIO
    TITLE "4:cjc087_3979"
    INDEX 01 03:45:01
  TRACK 118 AUDIO
    TITLE "3:cjc087_3980"
    INDEX 01 03:46:40
  TRACK 119 AUDIO
    TITLE "0:"
    INDEX 01 03:48:31
  TRACK 120 AUDIO
    TITLE "4:cjc087_3981"
    INDEX 01 03:49:30
  TRACK 121 AUDIO
    TITLE "3:cjc087_3982"
    INDEX 01 03:51:43
  TRACK 122 AUDIO
    TITLE "0:"
    INDEX 01 03:54:06
  TRACK 123 AUDIO
    TITLE "4:cjc087_3983"
    INDEX 01 03:55:05
  TRACK 124 AUDIO
    TITLE "3:cjc087_3984"
    INDEX 01 03:59:01
  TRACK 125 AUDIO
    TITLE "0:"
    INDEX 01 04:00:40
  TRACK 126 AUDIO
    TITLE "4:cjc087_3985"
    INDEX 01 04:01:37
  TRACK 127 AUDIO
    TITLE "3:cjc087_3986"
    INDEX 01 04:03:48
  TRACK 128 AUDIO
    TITLE "0:"
    INDEX 01 04:05:66
  TRACK 129 AUDIO
    TITLE "4:cjc087_3987"
    INDEX 01 04:06:66
  TRACK 130 AUDIO
    TITLE "3:cjc087_3988"
    INDEX 01 04:09:05
  TRACK 131 AUDIO
    TITLE "0:"
    INDEX 01 04:11:18
  TRACK 132 AUDIO
    TITLE "4:cjc087_3989"
    INDEX 01 04:12:17
  TRACK 133 AUDIO
    TITLE "3:cjc087_3990"
    INDEX 01 04:13:52
  TRACK 134 AUDIO
    TITLE "0:"
    INDEX 01 04:15:45
  TRACK 135 AUDIO
    TITLE "4:cjc087_3991"
    INDEX 01 04:16:43
  TRACK 136 AUDIO
    TITLE "3:cjc087_3992"
    INDEX 01 04:19:27
  TRACK 137 AUDIO
    TITLE "0:"
    INDEX 01 04:21:46
  TRACK 138 AUDIO
    TITLE "4:cjc087_3993"
    INDEX 01 04:22:43
  TRACK 139 AUDIO
    TITLE "3:cjc087_3994"
    INDEX 01 04:24:21
  TRACK 140 AUDIO
    TITLE "0:"
    INDEX 01 04:26:25
  TRACK 141 AUDIO
    TITLE "4:cjc087_3995"
    INDEX 01 04:27:25
  TRACK 142 AUDIO
    TITLE "3:cjc087_3996"
    INDEX 01 04:29:12
  TRACK 143 AUDIO
    TITLE "0:"
    INDEX 01 04:31:05
  TRACK 144 AUDIO
    TITLE "2:cjc087_3997"
    INDEX 01 04:32:38
  TRACK 145 AUDIO
    TITLE "0:"
    INDEX 01 04:43:47
  TRACK 146 AUDIO
    TITLE "5:cjc087_3998"
    INDEX 01 04:45:13
  TRACK 147 AUDIO
    TITLE "0:"
    INDEX 01 04:47:57
  TRACK 148 AUDIO
    TITLE "4:cjc087_3999"
    INDEX 01 04:48:54
  TRACK 149 AUDIO
    TITLE "3:cjc087_4000"
    INDEX 01 04:53:03
  TRACK 150 AUDIO
    TITLE "0:"
    INDEX 01 04:56:66
  TRACK 151 AUDIO
    TITLE "4:cjc087_4001"
    INDEX 01 04:57:63
  TRACK 152 AUDIO
    TITLE "3:cjc087_4002"
    INDEX 01 05:00:14
  TRACK 153 AUDIO
    TITLE "0:"
    INDEX 01 05:02:64
  TRACK 154 AUDIO
    TITLE "4:cjc087_4003"
    INDEX 01 05:03:62
  TRACK 155 AUDIO
    TITLE "3:cjc087_4004"
    INDEX 01 05:07:13
  TRACK 156 AUDIO
    TITLE "0:"
    INDEX 01 05:10:07
  TRACK 157 AUDIO
    TITLE "4:cjc087_4005"
    INDEX 01 05:11:06
  TRACK 158 AUDIO
    TITLE "3:cjc087_4006"
    INDEX 01 05:13:29
  TRACK 159 AUDIO
    TITLE "0:"
    INDEX 01 05:15:36
  TRACK 160 AUDIO
    TITLE "4:cjc087_4007"
    INDEX 01 05:16:33
  TRACK 161 AUDIO
    TITLE "3:cjc087_4008"
    INDEX 01 05:18:69
  TRACK 162 AUDIO
    TITLE "0:"
    INDEX 01 05:21:48
  TRACK 163 AUDIO
    TITLE "4:cjc087_4009"
    INDEX 01 05:22:47
  TRACK 164 AUDIO
    TITLE "3:cjc087_4010"
    INDEX 01 05:24:29
  TRACK 165 AUDIO
    TITLE "0:"
    INDEX 01 05:26:31
  TRACK 166 AUDIO
    TITLE "5:cjc087_4011"
    INDEX 01 05:27:68
  TRACK 167 AUDIO
    TITLE "0:"
    INDEX 01 05:30:29
  TRACK 168 AUDIO
    TITLE "4:cjc087_4012"
    INDEX 01 05:31:27
  TRACK 169 AUDIO
    TITLE "3:cjc087_4013"
    INDEX 01 05:33:24
  TRACK 170 AUDIO
    TITLE "0:"
    INDEX 01 05:35:44
  TRACK 171 AUDIO
    TITLE "4:cjc087_4014"
    INDEX 01 05:36:42
  TRACK 172 AUDIO
    TITLE "3:cjc087_4015"
    INDEX 01 05:38:25
  TRACK 173 AUDIO
    TITLE "0:"
    INDEX 01 05:40:32
  TRACK 174 AUDIO
    TITLE "4:cjc087_4016"
    INDEX 01 05:41:29
  TRACK 175 AUDIO
    TITLE "3:cjc087_4017"
    INDEX 01 05:43:24
  TRACK 176 AUDIO
    TITLE "0:"
    INDEX 01 05:45:52
  TRACK 177 AUDIO
    TITLE "4:cjc087_4018"
    INDEX 01 05:46:50
  TRACK 178 AUDIO
    TITLE "3:cjc087_4019"
    INDEX 01 05:49:17
  TRACK 179 AUDIO
    TITLE "0:"
    INDEX 01 05:51:59
  TRACK 180 AUDIO
    TITLE "4:cjc087_4020"
    INDEX 01 05:52:56
  TRACK 181 AUDIO
    TITLE "3:cjc087_4021"
    INDEX 01 05:55:35
  TRACK 182 AUDIO
    TITLE "0:"
    INDEX 01 05:58:20
  TRACK 183 AUDIO
    TITLE "4:cjc087_4022"
    INDEX 01 05:59:19
  TRACK 184 AUDIO
    TITLE "3:cjc087_4023"
    INDEX 01 06:00:73
  TRACK 185 AUDIO
    TITLE "0:"
    INDEX 01 06:03:17
  TRACK 186 AUDIO
    TITLE "4:cjc087_4024"
    INDEX 01 06:04:16
  TRACK 187 AUDIO
    TITLE "3:cjc087_4025"
    INDEX 01 06:06:31
  TRACK 188 AUDIO
    TITLE "0:"
    INDEX 01 06:08:59
  TRACK 189 AUDIO
    TITLE "5:cjc087_4026"
    INDEX 01 06:10:21
  TRACK 190 AUDIO
    TITLE "0:"
    INDEX 01 06:12:61
  TRACK 191 AUDIO
    TITLE "4:cjc087_4027"
    INDEX 01 06:13:58
  TRACK 192 AUDIO
    TITLE "3:cjc087_4028"
    INDEX 01 06:15:53
  TRACK 193 AUDIO
    TITLE "0:"
    INDEX 01 06:17:43
  TRACK 194 AUDIO
    TITLE "4:cjc087_4029"
    INDEX 01 06:18:42
  TRACK 195 AUDIO
    TITLE "3:cjc087_4030"
    INDEX 01 06:19:71
  TRACK 196 AUDIO
    TITLE "0:"
    INDEX 01 06:21:70
  TRACK 197 AUDIO
    TITLE "4:cjc087_4031"
    INDEX 01 06:22:69
  TRACK 198 AUDIO
    TITLE "3:cjc087_4032"
    INDEX 01 06:25:13
  TRACK 199 AUDIO
    TITLE "0:"
    INDEX 01 06:27:12
  TRACK 200 AUDIO
    TITLE "4:cjc087_4033"
    INDEX 01 06:28:09
  TRACK 201 AUDIO
    TITLE "3:cjc087_4034"
    INDEX 01 06:29:61
  TRACK 202 AUDIO
    TITLE "0:"
    INDEX 01 06:32:01
  TRACK 203 AUDIO
    TITLE "4:cjc087_4035"
    INDEX 01 06:33:06
  TRACK 204 AUDIO
    TITLE "3:cjc087_4036"
    INDEX 01 06:35:42
  TRACK 205 AUDIO
    TITLE "0:"
    INDEX 01 06:37:45
  TRACK 206 AUDIO
    TITLE "4:cjc087_4037"
    INDEX 01 06:38:41
  TRACK 207 AUDIO
    TITLE "3:cjc087_4038"
    INDEX 01 06:40:49
  TRACK 208 AUDIO
    TITLE "0:"
    INDEX 01 06:43:24
  TRACK 209 AUDIO
    TITLE "4:cjc087_4039"
    INDEX 01 06:44:22
  TRACK 210 AUDIO
    TITLE "3:cjc087_4040"
    INDEX 01 06:45:31
  TRACK 211 AUDIO
    TITLE "0:"
    INDEX 01 06:47:14
  TRACK 212 AUDIO
    TITLE "4:cjc087_4041"
    INDEX 01 06:48:12
  TRACK 213 AUDIO
    TITLE "3:cjc087_4042"
    INDEX 01 06:49:62
  TRACK 214 AUDIO
    TITLE "0:"
    INDEX 01 06:51:57
  TRACK 215 AUDIO
    TITLE "5:cjc087_4043"
    INDEX 01 06:53:19
  TRACK 216 AUDIO
    TITLE "0:"
    INDEX 01 06:55:57
  TRACK 217 AUDIO
    TITLE "4:cjc087_4044"
    INDEX 01 06:56:56
  TRACK 218 AUDIO
    TITLE "3:cjc087_4045"
    INDEX 01 06:58:20
  TRACK 219 AUDIO
    TITLE "0:"
    INDEX 01 07:00:03
  TRACK 220 AUDIO
    TITLE "4:cjc087_4046"
    INDEX 01 07:01:03
  TRACK 221 AUDIO
    TITLE "3:cjc087_4047"
    INDEX 01 07:02:67
  TRACK 222 AUDIO
    TITLE "0:"
    INDEX 01 07:04:68
  TRACK 223 AUDIO
    TITLE "4:cjc087_4048"
    INDEX 01 07:05:65
  TRACK 224 AUDIO
    TITLE "3:cjc087_4049"
    INDEX 01 07:07:33
  TRACK 225 AUDIO
    TITLE "0:"
    INDEX 01 07:09:02
  TRACK 226 AUDIO
    TITLE "4:cjc087_4050"
    INDEX 01 07:10:00
  TRACK 227 AUDIO
    TITLE "3:cjc087_4051"
    INDEX 01 07:12:32
  TRACK 228 AUDIO
    TITLE "0:"
    INDEX 01 07:14:72
  TRACK 229 AUDIO
    TITLE "4:cjc087_4052"
    INDEX 01 07:15:69
  TRACK 230 AUDIO
    TITLE "3:cjc087_4053"
    INDEX 01 07:21:35
  TRACK 231 AUDIO
    TITLE "0:"
    INDEX 01 07:23:67
  TRACK 232 AUDIO
    TITLE "4:cjc087_4054"
    INDEX 01 07:24:64
  TRACK 233 AUDIO
    TITLE "3:cjc087_4055"
    INDEX 01 07:27:12
  TRACK 234 AUDIO
    TITLE "0:"
    INDEX 01 07:29:44
  TRACK 235 AUDIO
    TITLE "4:cjc087_4056"
    INDEX 01 07:30:42
  TRACK 236 AUDIO
    TITLE "3:cjc087_4057"
    INDEX 01 07:32:15
  TRACK 237 AUDIO
    TITLE "0:"
    INDEX 01 07:34:06
  TRACK 238 AUDIO
    TITLE "5:cjc087_4058"
    INDEX 01 07:35:41
  TRACK 239 AUDIO
    TITLE "0:"
    INDEX 01 07:38:06
  TRACK 240 AUDIO
    TITLE "4:cjc087_4059"
    INDEX 01 07:39:03
  TRACK 241 AUDIO
    TITLE "3:cjc087_4060"
    INDEX 01 07:41:65
  TRACK 242 AUDIO
    TITLE "0:"
    INDEX 01 07:45:47
  TRACK 243 AUDIO
    TITLE "4:cjc087_4061"
    INDEX 01 07:46:44
  TRACK 244 AUDIO
    TITLE "3:cjc087_4062"
    INDEX 01 07:48:41
  TRACK 245 AUDIO
    TITLE "0:"
    INDEX 01 07:51:08
  TRACK 246 AUDIO
    TITLE "4:cjc087_4063"
    INDEX 01 07:52:06
  TRACK 247 AUDIO
    TITLE "3:cjc087_4064"
    INDEX 01 07:53:74
  TRACK 248 AUDIO
    TITLE "0:"
    INDEX 01 07:56:10
  TRACK 249 AUDIO
    TITLE "4:cjc087_4065"
    INDEX 01 07:57:09
  TRACK 250 AUDIO
    TITLE "3:cjc087_4066"
    INDEX 01 07:58:54
  TRACK 251 AUDIO
    TITLE "0:"
    INDEX 01 08:01:03
  TRACK 252 AUDIO
    TITLE "4:cjc087_4067"
    INDEX 01 08:02:00
  TRACK 253 AUDIO
    TITLE "3:cjc087_4068"
    INDEX 01 08:04:11
  TRACK 254 AUDIO
    TITLE "0:"
    INDEX 01 08:06:04
  TRACK 255 AUDIO
    TITLE "4:cjc087_4069"
    INDEX 01 08:07:00
  TRACK 256 AUDIO
    TITLE "3:cjc087_4070"
    INDEX 01 08:08:62
  TRACK 257 AUDIO
    TITLE "0:"
    INDEX 01 08:10:51
  TRACK 258 AUDIO
    TITLE "4:cjc087_4071"
    INDEX 01 08:11:50
  TRACK 259 AUDIO
    TITLE "3:cjc087_4072"
    INDEX 01 08:13:24
  TRACK 260 AUDIO
    TITLE "0:"
    INDEX 01 08:15:11
  TRACK 261 AUDIO
    TITLE "5:cjc087_4073"
    INDEX 01 08:16:46
  TRACK 262 AUDIO
    TITLE "0:"
    INDEX 01 08:19:15
  TRACK 263 AUDIO
    TITLE "4:cjc087_4074"
    INDEX 01 08:20:12
  TRACK 264 AUDIO
    TITLE "3:cjc087_4075"
    INDEX 01 08:23:32
  TRACK 265 AUDIO
    TITLE "0:"
    INDEX 01 08:26:18
  TRACK 266 AUDIO
    TITLE "4:cjc087_4076"
    INDEX 01 08:27:18
  TRACK 267 AUDIO
    TITLE "3:cjc087_4077"
    INDEX 01 08:29:11
  TRACK 268 AUDIO
    TITLE "0:"
    INDEX 01 08:31:18
  TRACK 269 AUDIO
    TITLE "4:cjc087_4078"
    INDEX 01 08:32:23
  TRACK 270 AUDIO
    TITLE "3:cjc087_4079"
    INDEX 01 08:33:54
  TRACK 271 AUDIO
    TITLE "0:"
    INDEX 01 08:35:35
  TRACK 272 AUDIO
    TITLE "4:cjc087_4080"
    INDEX 01 08:36:33
  TRACK 273 AUDIO
    TITLE "3:cjc087_4081"
    INDEX 01 08:38:33
  TRACK 274 AUDIO
    TITLE "0:"
    INDEX 01 08:40:54
  TRACK 275 AUDIO
    TITLE "4:cjc087_4082"
    INDEX 01 08:41:51
  TRACK 276 AUDIO
    TITLE "3:cjc087_4083"
    INDEX 01 08:43:66
  TRACK 277 AUDIO
    TITLE "0:"
    INDEX 01 08:46:04
  TRACK 278 AUDIO
    TITLE "4:cjc087_4084"
    INDEX 01 08:47:03
  TRACK 279 AUDIO
    TITLE "3:cjc087_4085"
    INDEX 01 08:49:61
  TRACK 280 AUDIO
    TITLE "0:"
    INDEX 01 08:52:30
  TRACK 281 AUDIO
    TITLE "4:cjc087_4086"
    INDEX 01 08:53:25
  TRACK 282 AUDIO
    TITLE "3:cjc087_4087"
    INDEX 01 08:55:12
  TRACK 283 AUDIO
    TITLE "0:"
    INDEX 01 08:57:25
  TRACK 284 AUDIO
    TITLE "2:cjc087_4088"
    INDEX 01 08:58:52
  TRACK 285 AUDIO
    TITLE "0:"
    INDEX 01 09:43:05
  TRACK 286 AUDIO
    TITLE "5:cjc087_4089"
    INDEX 01 09:45:40
  TRACK 287 AUDIO
    TITLE "0:"
    INDEX 01 09:48:09
  TRACK 288 AUDIO
    TITLE "4:cjc087_4090"
    INDEX 01 09:49:06
  TRACK 289 AUDIO
    TITLE "3:cjc087_4091"
    INDEX 01 09:50:64
  TRACK 290 AUDIO
    TITLE "0:"
    INDEX 01 09:53:00
  TRACK 291 AUDIO
    TITLE "4:cjc087_4092"
    INDEX 01 09:53:72
  TRACK 292 AUDIO
    TITLE "3:cjc087_4093"
    INDEX 01 09:56:49
  TRACK 293 AUDIO
    TITLE "0:"
    INDEX 01 09:59:28
  TRACK 294 AUDIO
    TITLE "4:cjc087_4094"
    INDEX 01 10:00:27
  TRACK 295 AUDIO
    TITLE "3:cjc087_4095"
    INDEX 01 10:02:01
  TRACK 296 AUDIO
    TITLE "0:"
    INDEX 01 10:04:25
  TRACK 297 AUDIO
    TITLE "4:cjc087_4096"
    INDEX 01 10:05:25
  TRACK 298 AUDIO
    TITLE "3:cjc087_4097"
    INDEX 01 10:07:12
  TRACK 299 AUDIO
    TITLE "0:"
    INDEX 01 10:09:11
  TRACK 300 AUDIO
    TITLE "4:cjc087_4098"
    INDEX 01 10:10:08
  TRACK 301 AUDIO
    TITLE "3:cjc087_4099"
    INDEX 01 10:11:72
  TRACK 302 AUDIO
    TITLE "0:"
    INDEX 01 10:14:61
  TRACK 303 AUDIO
    TITLE "4:cjc087_4100"
    INDEX 01 10:15:58
  TRACK 304 AUDIO
    TITLE "3:cjc087_4101"
    INDEX 01 10:17:34
  TRACK 305 AUDIO
    TITLE "0:"
    INDEX 01 10:19:17
  TRACK 306 AUDIO
    TITLE "4:cjc087_4102"
    INDEX 01 10:20:16
  TRACK 307 AUDIO
    TITLE "3:cjc087_4103"
    INDEX 01 10:22:02
  TRACK 308 AUDIO
    TITLE "0:"
    INDEX 01 10:24:40
  TRACK 309 AUDIO
    TITLE "5:cjc087_4104"
    INDEX 01 10:25:74
  TRACK 310 AUDIO
    TITLE "0:"
    INDEX 01 10:28:41
  TRACK 311 AUDIO
    TITLE "3:cjc087_4105"
    INDEX 01 10:29:41
  TRACK 312 AUDIO
    TITLE "4:cjc087_4106"
    INDEX 01 10:31:34
  TRACK 313 AUDIO
    TITLE "0:"
    INDEX 01 10:33:41
  TRACK 314 AUDIO
    TITLE "3:cjc087_4107"
    INDEX 01 10:34:38
  TRACK 315 AUDIO
    TITLE "4:cjc087_4108"
    INDEX 01 10:36:57
  TRACK 316 AUDIO
    TITLE "0:"
    INDEX 01 10:38:67
  TRACK 317 AUDIO
    TITLE "3:cjc087_4109"
    INDEX 01 10:39:65
  TRACK 318 AUDIO
    TITLE "4:cjc087_4110"
    INDEX 01 10:42:49
  TRACK 319 AUDIO
    TITLE "0:"
    INDEX 01 10:44:68
  TRACK 320 AUDIO
    TITLE "3:cjc087_4111"
    INDEX 01 10:45:63
  TRACK 321 AUDIO
    TITLE "4:cjc087_4112"
    INDEX 01 10:47:45
  TRACK 322 AUDIO
    TITLE "0:"
    INDEX 01 10:49:34
  TRACK 323 AUDIO
    TITLE "3:cjc087_4113"
    INDEX 01 10:50:33
  TRACK 324 AUDIO
    TITLE "4:cjc087_4114"
    INDEX 01 10:52:22
  TRACK 325 AUDIO
    TITLE "0:"
    INDEX 01 10:54:07
  TRACK 326 AUDIO
    TITLE "3:cjc087_4115"
    INDEX 01 10:55:05
  TRACK 327 AUDIO
    TITLE "4:cjc087_4116"
    INDEX 01 10:57:41
  TRACK 328 AUDIO
    TITLE "0:"
    INDEX 01 10:59:40
  TRACK 329 AUDIO
    TITLE "3:cjc087_4117"
    INDEX 01 11:00:36
  TRACK 330 AUDIO
    TITLE "4:cjc087_4118"
    INDEX 01 11:03:03
  TRACK 331 AUDIO
    TITLE "0:"
    INDEX 01 11:05:15
  TRACK 332 AUDIO
    TITLE "3:cjc087_4119"
    INDEX 01 11:06:11
  TRACK 333 AUDIO
    TITLE "4:cjc087_4120"
    INDEX 01 11:08:49
  TRACK 334 AUDIO
    TITLE "0:"
    INDEX 01 11:10:73
  TRACK 335 AUDIO
    TITLE "5:cjc087_4121"
    INDEX 01 11:12:35
  TRACK 336 AUDIO
    TITLE "0:"
    INDEX 01 11:15:04
  TRACK 337 AUDIO
    TITLE "4:cjc087_4122"
    INDEX 01 11:16:01
  TRACK 338 AUDIO
    TITLE "3:cjc087_4123"
    INDEX 01 11:18:16
  TRACK 339 AUDIO
    TITLE "0:"
    INDEX 01 11:20:24
  TRACK 340 AUDIO
    TITLE "4:cjc087_4124"
    INDEX 01 11:21:36
  TRACK 341 AUDIO
    TITLE "3:cjc087_4125"
    INDEX 01 11:23:29
  TRACK 342 AUDIO
    TITLE "0:"
    INDEX 01 11:26:07
  TRACK 343 AUDIO
    TITLE "4:cjc087_4126"
    INDEX 01 11:27:05
  TRACK 344 AUDIO
    TITLE "3:cjc087_4127"
    INDEX 01 11:28:40
  TRACK 345 AUDIO
    TITLE "0:"
    INDEX 01 11:30:37
  TRACK 346 AUDIO
    TITLE "4:cjc087_4128"
    INDEX 01 11:31:36
  TRACK 347 AUDIO
    TITLE "3:cjc087_4129"
    INDEX 01 11:33:09
  TRACK 348 AUDIO
    TITLE "0:"
    INDEX 01 11:35:18
  TRACK 349 AUDIO
    TITLE "4:cjc087_4130"
    INDEX 01 11:36:18
  TRACK 350 AUDIO
    TITLE "3:cjc087_4131"
    INDEX 01 11:38:54
  TRACK 351 AUDIO
    TITLE "0:"
    INDEX 01 11:41:17
  TRACK 352 AUDIO
    TITLE "4:cjc087_4132"
    INDEX 01 11:42:16
  TRACK 353 AUDIO
    TITLE "3:cjc087_4133"
    INDEX 01 11:43:71
  TRACK 354 AUDIO
    TITLE "0:"
    INDEX 01 11:46:00
  TRACK 355 AUDIO
    TITLE "5:cjc087_4134"
    INDEX 01 11:47:35
  TRACK 356 AUDIO
    TITLE "0:"
    INDEX 01 11:49:46
  TRACK 357 AUDIO
    TITLE "4:cjc087_4135"
    INDEX 01 11:50:43
  TRACK 358 AUDIO
    TITLE "3:cjc087_4136"
    INDEX 01 11:52:19
  TRACK 359 AUDIO
    TITLE "0:"
    INDEX 01 11:54:14
  TRACK 360 AUDIO
    TITLE "4:cjc087_4137"
    INDEX 01 11:55:13
  TRACK 361 AUDIO
    TITLE "3:cjc087_4138"
    INDEX 01 11:58:49
  TRACK 362 AUDIO
    TITLE "0:"
    INDEX 01 12:01:25
  TRACK 363 AUDIO
    TITLE "4:cjc087_4139"
    INDEX 01 12:02:23
  TRACK 364 AUDIO
    TITLE "3:cjc087_4140"
    INDEX 01 12:03:73
  TRACK 365 AUDIO
    TITLE "0:"
    INDEX 01 12:05:62
  TRACK 366 AUDIO
    TITLE "4:cjc087_4141"
    INDEX 01 12:06:58
  TRACK 367 AUDIO
    TITLE "3:cjc087_4142"
    INDEX 01 12:10:18
  TRACK 368 AUDIO
    TITLE "0:"
    INDEX 01 12:13:52
  TRACK 369 AUDIO
    TITLE "4:cjc087_4143"
    INDEX 01 12:14:48
  TRACK 370 AUDIO
    TITLE "3:cjc087_4144"
    INDEX 01 12:16:25
  TRACK 371 AUDIO
    TITLE "0:"
    INDEX 01 12:18:32
  TRACK 372 AUDIO
    TITLE "4:cjc087_4145"
    INDEX 01 12:19:31
  TRACK 373 AUDIO
    TITLE "3:cjc087_4146"
    INDEX 01 12:20:68
  TRACK 374 AUDIO
    TITLE "0:"
    INDEX 01 12:22:57
  TRACK 375 AUDIO
    TITLE "4:cjc087_4147"
    INDEX 01 12:23:56
  TRACK 376 AUDIO
    TITLE "3:cjc087_4148"
    INDEX 01 12:25:26
  TRACK 377 AUDIO
    TITLE "0:"
    INDEX 01 12:27:09
  TRACK 378 AUDIO
    TITLE "5:cjc087_4149"
    INDEX 01 12:28:46
  TRACK 379 AUDIO
    TITLE "0:"
    INDEX 01 12:31:11
  TRACK 380 AUDIO
    TITLE "4:cjc087_4150"
    INDEX 01 12:32:08
  TRACK 381 AUDIO
    TITLE "3:cjc087_4151"
    INDEX 01 12:34:58
  TRACK 382 AUDIO
    TITLE "0:"
    INDEX 01 12:37:43
  TRACK 383 AUDIO
    TITLE "4:cjc087_4152"
    INDEX 01 12:38:60
  TRACK 384 AUDIO
    TITLE "3:cjc087_4153"
    INDEX 01 12:40:45
  TRACK 385 AUDIO
    TITLE "0:"
    INDEX 01 12:42:42
  TRACK 386 AUDIO
    TITLE "4:cjc087_4154"
    INDEX 01 12:43:41
  TRACK 387 AUDIO
    TITLE "3:cjc087_4155"
    INDEX 01 12:45:40
  TRACK 388 AUDIO
    TITLE "0:"
    INDEX 01 12:47:16
  TRACK 389 AUDIO
    TITLE "4:cjc087_4156"
    INDEX 01 12:48:13
  TRACK 390 AUDIO
    TITLE "3:cjc087_4157"
    INDEX 01 12:50:28
  TRACK 391 AUDIO
    TITLE "0:"
    INDEX 01 12:52:01
  TRACK 392 AUDIO
    TITLE "4:cjc087_4158"
    INDEX 01 12:53:01
  TRACK 393 AUDIO
    TITLE "3:cjc087_4159"
    INDEX 01 12:54:59
  TRACK 394 AUDIO
    TITLE "0:"
    INDEX 01 12:56:54
  TRACK 395 AUDIO
    TITLE "4:cjc087_4160"
    INDEX 01 12:57:53
  TRACK 396 AUDIO
    TITLE "3:cjc087_4161"
    INDEX 01 12:59:42
  TRACK 397 AUDIO
    TITLE "0:"
    INDEX 01 13:01:32
  TRACK 398 AUDIO
    TITLE "4:cjc087_4162"
    INDEX 01 13:02:31
  TRACK 399 AUDIO
    TITLE "3:cjc087_4163"
    INDEX 01 13:03:66
  TRACK 400 AUDIO
    TITLE "0:"
    INDEX 01 13:05:49
  TRACK 401 AUDIO
    TITLE "5:cjc087_4164"
    INDEX 01 13:07:11
  TRACK 402 AUDIO
    TITLE "0:"
    INDEX 01 13:09:45
  TRACK 403 AUDIO
    TITLE "4:cjc087_4165"
    INDEX 01 13:10:42
  TRACK 404 AUDIO
    TITLE "3:cjc087_4166"
    INDEX 01 13:11:59
  TRACK 405 AUDIO
    TITLE "0:"
    INDEX 01 13:13:48
  TRACK 406 AUDIO
    TITLE "4:cjc087_4167"
    INDEX 01 13:14:46
  TRACK 407 AUDIO
    TITLE "3:cjc087_4168"
    INDEX 01 13:15:59
  TRACK 408 AUDIO
    TITLE "0:"
    INDEX 01 13:18:08
  TRACK 409 AUDIO
    TITLE "4:cjc087_4169"
    INDEX 01 13:19:06
  TRACK 410 AUDIO
    TITLE "3:cjc087_4170"
    INDEX 01 13:21:44
  TRACK 411 AUDIO
    TITLE "0:"
    INDEX 01 13:23:61
  TRACK 412 AUDIO
    TITLE "4:cjc087_4171"
    INDEX 01 13:24:62
  TRACK 413 AUDIO
    TITLE "3:cjc087_4172"
    INDEX 01 13:27:41
  TRACK 414 AUDIO
    TITLE "0:"
    INDEX 01 13:30:63
  TRACK 415 AUDIO
    TITLE "4:cjc087_4173"
    INDEX 01 13:31:62
  TRACK 416 AUDIO
    TITLE "3:cjc087_4174"
    INDEX 01 13:33:33
  TRACK 417 AUDIO
    TITLE "0:"
    INDEX 01 13:35:36
  TRACK 418 AUDIO
    TITLE "4:cjc087_4175"
    INDEX 01 13:36:34
  TRACK 419 AUDIO
    TITLE "3:cjc087_4176"
    INDEX 01 13:37:69
  TRACK 420 AUDIO
    TITLE "0:"
    INDEX 01 13:39:73
  TRACK 421 AUDIO
    TITLE "4:cjc087_4177"
    INDEX 01 13:40:73
  TRACK 422 AUDIO
    TITLE "3:cjc087_4178"
    INDEX 01 13:42:60
  TRACK 423 AUDIO
    TITLE "0:"
    INDEX 01 13:44:51
  TRACK 424 AUDIO
    TITLE "2:cjc087_4179"
    INDEX 01 13:46:09
  TRACK 425 AUDIO
    TITLE "0:"
    INDEX 01 14:16:18
  TRACK 426 AUDIO
    TITLE "5:cjc087_4180"
    INDEX 01 14:17:64
  TRACK 427 AUDIO
    TITLE "0:"
    INDEX 01 14:20:25
  TRACK 428 AUDIO
    TITLE "4:cjc087_4181"
    INDEX 01 14:21:23
  TRACK 429 AUDIO
    TITLE "3:cjc087_4182"
    INDEX 01 14:23:43
  TRACK 430 AUDIO
    TITLE "0:"
    INDEX 01 14:26:24
  TRACK 431 AUDIO
    TITLE "4:cjc087_4183"
    INDEX 01 14:27:21
  TRACK 432 AUDIO
    TITLE "3:cjc087_4184"
    INDEX 01 14:29:67
  TRACK 433 AUDIO
    TITLE "0:"
    INDEX 01 14:32:07
  TRACK 434 AUDIO
    TITLE "4:cjc087_4185"
    INDEX 01 14:33:04
  TRACK 435 AUDIO
    TITLE "3:cjc087_4186"
    INDEX 01 14:35:11
  TRACK 436 AUDIO
    TITLE "0:"
    INDEX 01 14:36:73
  TRACK 437 AUDIO
    TITLE "4:cjc087_4187"
    INDEX 01 14:37:73
  TRACK 438 AUDIO
    TITLE "3:cjc087_4188"
    INDEX 01 14:40:06
  TRACK 439 AUDIO
    TITLE "0:"
    INDEX 01 14:41:65
  TRACK 440 AUDIO
    TITLE "4:cjc087_4189"
    INDEX 01 14:42:62
  TRACK 441 AUDIO
    TITLE "3:cjc087_4190"
    INDEX 01 14:47:03
  TRACK 442 AUDIO
    TITLE "0:"
    INDEX 01 14:50:64
  TRACK 443 AUDIO
    TITLE "4:cjc087_4191"
    INDEX 01 14:51:63
  TRACK 444 AUDIO
    TITLE "3:cjc087_4192"
    INDEX 01 14:54:67
  TRACK 445 AUDIO
    TITLE "0:"
    INDEX 01 14:57:48
  TRACK 446 AUDIO
    TITLE "5:cjc087_4193"
    INDEX 01 14:59:10
  TRACK 447 AUDIO
    TITLE "0:"
    INDEX 01 15:01:44
  TRACK 448 AUDIO
    TITLE "4:cjc087_4194"
    INDEX 01 15:02:43
  TRACK 449 AUDIO
    TITLE "3:cjc087_4195"
    INDEX 01 15:05:08
  TRACK 450 AUDIO
    TITLE "0:"
    INDEX 01 15:07:60
  TRACK 451 AUDIO
    TITLE "4:cjc087_4196"
    INDEX 01 15:08:60
  TRACK 452 AUDIO
    TITLE "3:cjc087_4197"
    INDEX 01 15:12:18
  TRACK 453 AUDIO
    TITLE "0:"
    INDEX 01 15:14:44
  TRACK 454 AUDIO
    TITLE "4:cjc087_4198"
    INDEX 01 15:15:42
  TRACK 455 AUDIO
    TITLE "3:cjc087_4199"
    INDEX 01 15:17:72
  TRACK 456 AUDIO
    TITLE "0:"
    INDEX 01 15:20:57
  TRACK 457 AUDIO
    TITLE "4:cjc087_4200"
    INDEX 01 15:21:54
  TRACK 458 AUDIO
    TITLE "3:cjc087_4201"
    INDEX 01 15:25:11
  TRACK 459 AUDIO
    TITLE "0:"
    INDEX 01 15:27:73
  TRACK 460 AUDIO
    TITLE "4:cjc087_4202"
    INDEX 01 15:28:74
  TRACK 461 AUDIO
    TITLE "3:cjc087_4203"
    INDEX 01 15:30:14
  TRACK 462 AUDIO
    TITLE "0:"
    INDEX 01 15:32:29
  TRACK 463 AUDIO
    TITLE "4:cjc087_4204"
    INDEX 01 15:33:26
  TRACK 464 AUDIO
    TITLE "3:cjc087_4205"
    INDEX 01 15:35:03
  TRACK 465 AUDIO
    TITLE "0:"
    INDEX 01 15:37:04
  TRACK 466 AUDIO
    TITLE "4:cjc087_4206"
    INDEX 01 15:38:02
  TRACK 467 AUDIO
    TITLE "3:cjc087_4207"
    INDEX 01 15:40:20
  TRACK 468 AUDIO
    TITLE "0:"
    INDEX 01 15:43:07
  TRACK 469 AUDIO
    TITLE "5:cjc087_4208"
    INDEX 01 15:44:42
  TRACK 470 AUDIO
    TITLE "0:"
    INDEX 01 15:47:01
  TRACK 471 AUDIO
    TITLE "4:cjc087_4209"
    INDEX 01 15:47:71
  TRACK 472 AUDIO
    TITLE "3:cjc087_4210"
    INDEX 01 15:50:48
  TRACK 473 AUDIO
    TITLE "0:"
    INDEX 01 15:52:69
  TRACK 474 AUDIO
    TITLE "4:cjc087_4211"
    INDEX 01 15:53:66
  TRACK 475 AUDIO
    TITLE "3:cjc087_4212"
    INDEX 01 15:57:29
  TRACK 476 AUDIO
    TITLE "0:"
    INDEX 01 15:59:59
  TRACK 477 AUDIO
    TITLE "4:cjc087_4213"
    INDEX 01 16:00:58
  TRACK 478 AUDIO
    TITLE "3:cjc087_4214"
    INDEX 01 16:02:57
  TRACK 479 AUDIO
    TITLE "0:"
    INDEX 01 16:04:66
  TRACK 480 AUDIO
    TITLE "4:cjc087_4215"
    INDEX 01 16:05:63
  TRACK 481 AUDIO
    TITLE "3:cjc087_4216"
    INDEX 01 16:07:68
  TRACK 482 AUDIO
    TITLE "0:"
    INDEX 01 16:10:29
  TRACK 483 AUDIO
    TITLE "4:cjc087_4217"
    INDEX 01 16:11:27
  TRACK 484 AUDIO
    TITLE "3:cjc087_4218"
    INDEX 01 16:14:45
  TRACK 485 AUDIO
    TITLE "0:"
    INDEX 01 16:17:02
  TRACK 486 AUDIO
    TITLE "5:cjc087_4219"
    INDEX 01 16:18:37
  TRACK 487 AUDIO
    TITLE "0:"
    INDEX 01 16:21:04
  TRACK 488 AUDIO
    TITLE "4:cjc087_4220"
    INDEX 01 16:22:03
  TRACK 489 AUDIO
    TITLE "3:cjc087_4221"
    INDEX 01 16:25:50
  TRACK 490 AUDIO
    TITLE "0:"
    INDEX 01 16:29:58
  TRACK 491 AUDIO
    TITLE "4:cjc087_4222"
    INDEX 01 16:30:57
  TRACK 492 AUDIO
    TITLE "3:cjc087_4223"
    INDEX 01 16:33:52
  TRACK 493 AUDIO
    TITLE "0:"
    INDEX 01 16:36:15
  TRACK 494 AUDIO
    TITLE "4:cjc087_4224"
    INDEX 01 16:37:16
  TRACK 495 AUDIO
    TITLE "3:cjc087_4225"
    INDEX 01 16:39:09
  TRACK 496 AUDIO
    TITLE "0:"
    INDEX 01 16:41:22
  TRACK 497 AUDIO
    TITLE "4:cjc087_4226"
    INDEX 01 16:42:21
  TRACK 498 AUDIO
    TITLE "3:cjc087_4227"
    INDEX 01 16:43:56
  TRACK 499 AUDIO
    TITLE "0:"
    INDEX 01 16:46:19
  TRACK 500 AUDIO
    TITLE "4:cjc087_4228"
    INDEX 01 16:47:13
  TRACK 501 AUDIO
    TITLE "3:cjc087_4229"
    INDEX 01 16:49:45
  TRACK 502 AUDIO
    TITLE "0:"
    INDEX 01 16:52:08
